<svg xmlns="http://www.w3.org/2000/svg" xmlns:bx="https://boxy-svg.com" viewBox="0 0 500 500">
    <defs>
        <filter id="a" x="-500%" y="-500%" width="1000%" height="1000%" bx:preset="inner-shadow 1 -1 -1 2 0.65 rgba(0,0,0,0.7)">
            <feOffset dx="-1" dy="-1"/>
            <feGaussianBlur stdDeviation="2"/>
            <feComposite operator="out" in="SourceGraphic"/>
            <feComponentTransfer result="choke">
                <feFuncA type="linear" slope="1.3"/>
            </feComponentTransfer>
            <feFlood flood-color="rgba(0,0,0,0.7)" result="color"/>
            <feComposite operator="in" in="color" in2="choke" result="shadow"/>
            <feComposite in="shadow" in2="SourceGraphic"/>
        </filter>
        <filter id="b" x="-500%" y="-500%" width="1000%" height="1000%" bx:preset="inner-shadow 1 0.25 0.25 0.5 0.65 rgba(0,0,0,0.7)">
            <feOffset dx=".25" dy=".25"/>
            <feGaussianBlur stdDeviation=".5"/>
            <feComposite operator="out" in="SourceGraphic"/>
            <feComponentTransfer result="choke">
                <feFuncA type="linear" slope="1.3"/>
            </feComponentTransfer>
            <feFlood flood-color="rgba(0,0,0,0.7)" result="color"/>
            <feComposite operator="in" in="color" in2="choke" result="shadow"/>
            <feComposite in="shadow" in2="SourceGraphic"/>
        </filter>
        <filter id="c" x="-500%" y="-500%" width="1000%" height="1000%" bx:preset="inner-shadow 1 0.25 0.25 0.5 0.65 rgba(0,0,0,0.7)">
            <feOffset dx=".25" dy=".25"/>
            <feGaussianBlur stdDeviation=".5"/>
            <feComposite operator="out" in="SourceGraphic"/>
            <feComponentTransfer result="choke">
                <feFuncA type="linear" slope="1.3"/>
            </feComponentTransfer>
            <feFlood flood-color="rgba(0,0,0,0.7)" result="color"/>
            <feComposite operator="in" in="color" in2="choke" result="shadow"/>
            <feComposite in="shadow" in2="SourceGraphic"/>
        </filter>
        <filter id="d" x="-500%" y="-500%" width="1000%" height="1000%" bx:preset="inner-shadow 1 0.25 0.25 0.5 0.65 rgba(0,0,0,0.7)">
            <feOffset dx=".25" dy=".25"/>
            <feGaussianBlur stdDeviation=".5"/>
            <feComposite operator="out" in="SourceGraphic"/>
            <feComponentTransfer result="choke">
                <feFuncA type="linear" slope="1.3"/>
            </feComponentTransfer>
            <feFlood flood-color="rgba(0,0,0,0.7)" result="color"/>
            <feComposite operator="in" in="color" in2="choke" result="shadow"/>
            <feComposite in="shadow" in2="SourceGraphic"/>
        </filter>
        <filter id="e" x="-500%" y="-500%" width="1000%" height="1000%" bx:preset="inner-shadow 1 0.25 0.25 0.5 0.65 rgba(0,0,0,0.7)">
            <feOffset dx=".25" dy=".25"/>
            <feGaussianBlur stdDeviation=".5"/>
            <feComposite operator="out" in="SourceGraphic"/>
            <feComponentTransfer result="choke">
                <feFuncA type="linear" slope="1.3"/>
            </feComponentTransfer>
            <feFlood flood-color="rgba(0,0,0,0.7)" result="color"/>
            <feComposite operator="in" in="color" in2="choke" result="shadow"/>
            <feComposite in="shadow" in2="SourceGraphic"/>
        </filter>
        <filter id="f" x="-500%" y="-500%" width="1000%" height="1000%" bx:preset="inner-shadow 1 0.25 0.25 0.5 0.65 rgba(0,0,0,0.7)">
            <feOffset dx=".25" dy=".25"/>
            <feGaussianBlur stdDeviation=".5"/>
            <feComposite operator="out" in="SourceGraphic"/>
            <feComponentTransfer result="choke">
                <feFuncA type="linear" slope="1.3"/>
            </feComponentTransfer>
            <feFlood flood-color="rgba(0,0,0,0.7)" result="color"/>
            <feComposite operator="in" in="color" in2="choke" result="shadow"/>
            <feComposite in="shadow" in2="SourceGraphic"/>
        </filter>
        <filter id="g" x="-500%" y="-500%" width="1000%" height="1000%" bx:preset="inner-shadow 1 0.25 0.25 0.5 0.65 rgba(0,0,0,0.7)">
            <feOffset dx=".25" dy=".25"/>
            <feGaussianBlur stdDeviation=".5"/>
            <feComposite operator="out" in="SourceGraphic"/>
            <feComponentTransfer result="choke">
                <feFuncA type="linear" slope="1.3"/>
            </feComponentTransfer>
            <feFlood flood-color="rgba(0,0,0,0.7)" result="color"/>
            <feComposite operator="in" in="color" in2="choke" result="shadow"/>
            <feComposite in="shadow" in2="SourceGraphic"/>
        </filter>
        <filter id="h" x="-500%" y="-500%" width="1000%" height="1000%" bx:preset="inner-shadow 1 0.25 0.25 0.5 0.65 rgba(0,0,0,0.7)">
            <feOffset dx=".25" dy=".25"/>
            <feGaussianBlur stdDeviation=".5"/>
            <feComposite operator="out" in="SourceGraphic"/>
            <feComponentTransfer result="choke">
                <feFuncA type="linear" slope="1.3"/>
            </feComponentTransfer>
            <feFlood flood-color="rgba(0,0,0,0.7)" result="color"/>
            <feComposite operator="in" in="color" in2="choke" result="shadow"/>
            <feComposite in="shadow" in2="SourceGraphic"/>
        </filter>
        <filter id="i" x="-500%" y="-500%" width="1000%" height="1000%" bx:preset="inner-shadow 1 0.25 0.25 0.5 0.65 rgba(0,0,0,0.7)">
            <feOffset dx=".25" dy=".25"/>
            <feGaussianBlur stdDeviation=".5"/>
            <feComposite operator="out" in="SourceGraphic"/>
            <feComponentTransfer result="choke">
                <feFuncA type="linear" slope="1.3"/>
            </feComponentTransfer>
            <feFlood flood-color="rgba(0,0,0,0.7)" result="color"/>
            <feComposite operator="in" in="color" in2="choke" result="shadow"/>
            <feComposite in="shadow" in2="SourceGraphic"/>
        </filter>
        <filter id="j" x="-500%" y="-500%" width="1000%" height="1000%" bx:preset="inner-shadow 1 0.25 0.25 0.5 0.65 rgba(0,0,0,0.7)">
            <feOffset dx=".25" dy=".25"/>
            <feGaussianBlur stdDeviation=".5"/>
            <feComposite operator="out" in="SourceGraphic"/>
            <feComponentTransfer result="choke">
                <feFuncA type="linear" slope="1.3"/>
            </feComponentTransfer>
            <feFlood flood-color="rgba(0,0,0,0.7)" result="color"/>
            <feComposite operator="in" in="color" in2="choke" result="shadow"/>
            <feComposite in="shadow" in2="SourceGraphic"/>
        </filter>
        <filter id="k" x="-500%" y="-500%" width="1000%" height="1000%" bx:preset="inner-shadow 1 -0.25 -0.25 0.5 0.65 rgba(0,0,0,0.7)">
            <feOffset dx="-.25" dy="-.25"/>
            <feGaussianBlur stdDeviation=".5"/>
            <feComposite operator="out" in="SourceGraphic"/>
            <feComponentTransfer result="choke">
                <feFuncA type="linear" slope="1.3"/>
            </feComponentTransfer>
            <feFlood flood-color="rgba(0,0,0,0.7)" result="color"/>
            <feComposite operator="in" in="color" in2="choke" result="shadow"/>
            <feComposite in="shadow" in2="SourceGraphic"/>
        </filter>
    </defs>
    <path d="M120 0h260c11.046 0 20 8.954 20 20v70c0 5.523 4.477 10 10 10h70c11.046 0 20 8.954 20 20v260c0 11.046-8.954 20-20 20h-70c-5.523 0-10 4.477-10 10v70c0 11.046-8.954 20-20 20H120c-11.046 0-20-8.954-20-20v-70c0-5.523-4.477-10-10-10H20c-11.046 0-20-8.954-20-20V120c0-11.046 8.954-20 20-20h70c5.523 0 10-4.477 10-10V20c0-11.046 8.954-20 20-20z" fill="#fafafa" filter="url(#a)"/>
    <path d="M200 108a1 1 0 011 1v90h98v-90a1 1 0 012 0v90h90a1 1 0 010 2h-90v98h90a1 1 0 010 2h-90v90a1 1 0 01-2 0v-90h-98v90a1 1 0 01-2 0v-90h-90a1 1 0 010-2h90v-98h-90a1 1 0 010-2h90v-90a1 1 0 011-1zm99 93h-98v98h98z" fill="#fafafa" filter="url(#b)"/>
    <rect x="199" y="8" width="2" height="84" rx="1" ry="1" fill="#fafafa" filter="url(#c)"/>
    <rect x="299" y="8" width="2" height="84" rx="1" ry="1" fill="#fafafa" filter="url(#d)"/>
    <rect x="199" y="408" width="2" height="84" rx="1" ry="1" fill="#fafafa" filter="url(#e)"/>
    <rect x="299" y="408" width="2" height="84" rx="1" ry="1" fill="#fafafa" filter="url(#f)"/>
    <rect transform="rotate(90 50 50)" x="199" y="8" width="2" height="84" rx="1" ry="1" fill="#fafafa" filter="url(#g)"/>
    <rect transform="rotate(90 0 100)" x="199" y="8" width="2" height="84" rx="1" ry="1" fill="#fafafa" filter="url(#h)"/>
    <rect transform="rotate(90 200 300)" x="199" y="8" width="2" height="84" rx="1" ry="1" fill="#fafafa" filter="url(#i)"/>
    <rect transform="rotate(90 250 250)" x="199" y="8" width="2" height="84" rx="1" ry="1" fill="#fafafa" filter="url(#j)"/>
    <path d="M109 99h281c5.523 0 10 4.477 10 10v281c0 5.523-4.477 10-10 10H109c-5.523 0-10-4.477-10-10V109c0-5.523 4.477-10 10-10zm-8 10v281a8 8 0 008 8h281a8 8 0 008-8V109a8 8 0 00-8-8H109a8 8 0 00-8 8z" fill="#fafafa" filter="url(#k)"/>
</svg>
